<svg width="200" height="36" viewBox="0 0 200 36" fill="none" xmlns="http://www.w3.org/2000/svg">
<path d="M16.9434 9.25C15.6767 9.25 14.6267 9.5 13.7934 10C12.9934 10.5 12.36 11.1667 11.8934 12C11.4267 12.8 11.0934 13.7333 10.8934 14.8C10.7267 15.8667 10.6434 16.9667 10.6434 18.1C10.6434 19.2333 10.7267 20.3333 10.8934 21.4C11.0934 22.4667 11.4267 23.4167 11.8934 24.25C12.36 25.0833 12.9934 25.75 13.7934 26.25C14.6267 26.75 15.6767 27 16.9434 27H30.1434C31.71 27 32.9767 26.6 33.9434 25.8C34.9434 25 35.56 24.0167 35.7934 22.85H18.6434V16.25H45.8434V35.95H39.0434L37.8934 33.35C36.9267 33.9167 35.9267 34.3667 34.8934 34.7C33.86 35.0333 32.8267 35.3 31.7934 35.5C30.7934 35.6667 29.8267 35.7833 28.8934 35.85C27.96 35.9167 27.0934 35.95 26.2934 35.95H19.5434C18.4767 35.95 17.26 35.9 15.8934 35.8C14.56 35.6667 13.1934 35.4 11.7934 35C10.3934 34.5667 9.02669 33.9667 7.69336 33.2C6.36003 32.4 5.17669 31.35 4.14336 30.05C3.11003 28.7167 2.27669 27.0833 1.64336 25.15C1.01003 23.1833 0.693359 20.8333 0.693359 18.1C0.693359 15.3667 1.01003 13.0333 1.64336 11.1C2.27669 9.13333 3.11003 7.5 4.14336 6.2C5.17669 4.86667 6.36003 3.81666 7.69336 3.05C9.02669 2.25 10.3934 1.65 11.7934 1.25C13.1934 0.816666 14.56 0.549999 15.8934 0.449999C17.26 0.316665 18.4767 0.249998 19.5434 0.249998H27.2934C28.26 0.249998 29.3434 0.299999 30.5434 0.399999C31.7767 0.499998 33.01 0.716664 34.2434 1.05C35.51 1.35 36.76 1.8 37.9934 2.4C39.26 3 40.41 3.81666 41.4434 4.85C42.51 5.85 43.4267 7.1 44.1934 8.6C44.96 10.0667 45.51 11.8333 45.8434 13.9H35.6934C35.4267 12.4667 34.8267 11.3333 33.8934 10.5C32.96 9.66666 31.6434 9.25 29.9434 9.25H16.9434ZM93.4398 13.6C93.4398 15.5667 93.1898 17.2667 92.6898 18.7C92.1898 20.1 91.5232 21.3 90.6898 22.3C89.8565 23.2667 88.8898 24.05 87.7898 24.65C86.7232 25.25 85.5898 25.7167 84.3898 26.05L95.2398 35.95H82.2898L72.8898 26.95H60.3398V35.95H50.8398V0.249998H76.3898C77.4565 0.249998 78.6232 0.299999 79.8898 0.399999C81.1565 0.466665 82.4232 0.649998 83.6898 0.949998C84.9565 1.25 86.1732 1.7 87.3398 2.3C88.5065 2.86667 89.5398 3.65 90.4398 4.65C91.3398 5.65 92.0565 6.88333 92.5898 8.35C93.1565 9.78333 93.4398 11.5333 93.4398 13.6ZM60.3398 18H77.1898C78.4565 18 79.4898 17.9 80.2898 17.7C81.1232 17.5 81.7732 17.2167 82.2398 16.85C82.7065 16.4833 83.0232 16.0333 83.1898 15.5C83.3898 14.9333 83.4898 14.3 83.4898 13.6C83.4898 12.9 83.3898 12.2833 83.1898 11.75C83.0232 11.2167 82.7065 10.7667 82.2398 10.4C81.7732 10 81.1232 9.71666 80.2898 9.55C79.4898 9.35 78.4565 9.25 77.1898 9.25H60.3398V18ZM123.748 0.249998L141.698 35.95H131.098L127.448 28.2H108.498L104.848 35.95H94.248L112.248 0.249998H123.748ZM123.448 19.75L117.998 8.1L112.498 19.75H123.448ZM183.911 0.249998H199.311V35.95H189.811V10.1L177.561 35.95H165.411L153.161 10.1V35.95H143.711V0.249998H159.061L171.511 25.85L183.911 0.249998Z" fill="url(#paint0_radial_10_81)"/>
<path d="M16.9434 9.25C15.6767 9.25 14.6267 9.5 13.7934 10C12.9934 10.5 12.36 11.1667 11.8934 12C11.4267 12.8 11.0934 13.7333 10.8934 14.8C10.7267 15.8667 10.6434 16.9667 10.6434 18.1C10.6434 19.2333 10.7267 20.3333 10.8934 21.4C11.0934 22.4667 11.4267 23.4167 11.8934 24.25C12.36 25.0833 12.9934 25.75 13.7934 26.25C14.6267 26.75 15.6767 27 16.9434 27H30.1434C31.71 27 32.9767 26.6 33.9434 25.8C34.9434 25 35.56 24.0167 35.7934 22.85H18.6434V16.25H45.8434V35.95H39.0434L37.8934 33.35C36.9267 33.9167 35.9267 34.3667 34.8934 34.7C33.86 35.0333 32.8267 35.3 31.7934 35.5C30.7934 35.6667 29.8267 35.7833 28.8934 35.85C27.96 35.9167 27.0934 35.95 26.2934 35.95H19.5434C18.4767 35.95 17.26 35.9 15.8934 35.8C14.56 35.6667 13.1934 35.4 11.7934 35C10.3934 34.5667 9.02669 33.9667 7.69336 33.2C6.36003 32.4 5.17669 31.35 4.14336 30.05C3.11003 28.7167 2.27669 27.0833 1.64336 25.15C1.01003 23.1833 0.693359 20.8333 0.693359 18.1C0.693359 15.3667 1.01003 13.0333 1.64336 11.1C2.27669 9.13333 3.11003 7.5 4.14336 6.2C5.17669 4.86667 6.36003 3.81666 7.69336 3.05C9.02669 2.25 10.3934 1.65 11.7934 1.25C13.1934 0.816666 14.56 0.549999 15.8934 0.449999C17.26 0.316665 18.4767 0.249998 19.5434 0.249998H27.2934C28.26 0.249998 29.3434 0.299999 30.5434 0.399999C31.7767 0.499998 33.01 0.716664 34.2434 1.05C35.51 1.35 36.76 1.8 37.9934 2.4C39.26 3 40.41 3.81666 41.4434 4.85C42.51 5.85 43.4267 7.1 44.1934 8.6C44.96 10.0667 45.51 11.8333 45.8434 13.9H35.6934C35.4267 12.4667 34.8267 11.3333 33.8934 10.5C32.96 9.66666 31.6434 9.25 29.9434 9.25H16.9434ZM93.4398 13.6C93.4398 15.5667 93.1898 17.2667 92.6898 18.7C92.1898 20.1 91.5232 21.3 90.6898 22.3C89.8565 23.2667 88.8898 24.05 87.7898 24.65C86.7232 25.25 85.5898 25.7167 84.3898 26.05L95.2398 35.95H82.2898L72.8898 26.95H60.3398V35.95H50.8398V0.249998H76.3898C77.4565 0.249998 78.6232 0.299999 79.8898 0.399999C81.1565 0.466665 82.4232 0.649998 83.6898 0.949998C84.9565 1.25 86.1732 1.7 87.3398 2.3C88.5065 2.86667 89.5398 3.65 90.4398 4.65C91.3398 5.65 92.0565 6.88333 92.5898 8.35C93.1565 9.78333 93.4398 11.5333 93.4398 13.6ZM60.3398 18H77.1898C78.4565 18 79.4898 17.9 80.2898 17.7C81.1232 17.5 81.7732 17.2167 82.2398 16.85C82.7065 16.4833 83.0232 16.0333 83.1898 15.5C83.3898 14.9333 83.4898 14.3 83.4898 13.6C83.4898 12.9 83.3898 12.2833 83.1898 11.75C83.0232 11.2167 82.7065 10.7667 82.2398 10.4C81.7732 10 81.1232 9.71666 80.2898 9.55C79.4898 9.35 78.4565 9.25 77.1898 9.25H60.3398V18ZM123.748 0.249998L141.698 35.95H131.098L127.448 28.2H108.498L104.848 35.95H94.248L112.248 0.249998H123.748ZM123.448 19.75L117.998 8.1L112.498 19.75H123.448ZM183.911 0.249998H199.311V35.95H189.811V10.1L177.561 35.95H165.411L153.161 10.1V35.95H143.711V0.249998H159.061L171.511 25.85L183.911 0.249998Z" fill="url(#paint1_radial_10_81)"/>
<defs>
<radialGradient id="paint0_radial_10_81" cx="0" cy="0" r="1" gradientUnits="userSpaceOnUse" gradientTransform="translate(196.368 59.875) rotate(-155.799) scale(150.934 231.358)">
<stop offset="0.24392" stop-color="#FF1B90"/>
<stop offset="0.436673" stop-color="#F80261"/>
<stop offset="0.688476" stop-color="#ED00C0"/>
<stop offset="0.776787" stop-color="#C500E9"/>
<stop offset="0.893155" stop-color="#7017FF"/>
</radialGradient>
<radialGradient id="paint1_radial_10_81" cx="0" cy="0" r="1" gradientUnits="userSpaceOnUse" gradientTransform="translate(33.6687 48) rotate(-13.5084) scale(107.026 26.5724)">
<stop offset="0.09" stop-color="#FFD000"/>
<stop offset="0.44" stop-color="#FF6930"/>
<stop offset="0.69" stop-color="#FE3B36"/>
<stop offset="1" stop-color="#FF6930" stop-opacity="0"/>
</radialGradient>
</defs>
</svg>
