<svg width="78" height="78" viewBox="0 0 78 78" fill="none" xmlns="http://www.w3.org/2000/svg">
<path fill-rule="evenodd" clip-rule="evenodd" d="M77.3332 39C77.3332 60.1715 60.1714 77.3334 38.9999 77.3334C32.8666 77.3334 27.0706 75.892 21.9339 73.3314C20.5774 72.6287 19.0105 72.4473 17.5294 72.8215L8.99639 75.1062C8.15179 75.3316 7.26278 75.3308 6.41857 75.104C5.57437 74.8772 4.80468 74.4323 4.18676 73.814C3.56884 73.1957 3.12443 72.4257 2.89815 71.5813C2.67186 70.737 2.67166 69.848 2.89755 69.0035L5.17839 60.4705C5.55044 58.9901 5.36772 57.4248 4.66472 56.0699C2.02597 50.7671 0.657169 44.9231 0.666552 39C0.666552 17.8285 17.8284 0.666687 38.9999 0.666687C60.1714 0.666687 77.3332 17.8285 77.3332 39ZM21.7499 35.5807C21.7499 40.8285 26.8061 46.3332 31.4444 50.2777C34.5992 52.961 36.1786 54.3065 38.9999 54.3065C41.8212 54.3065 43.4006 52.9649 46.5554 50.2777C51.1937 46.3294 56.2499 40.8285 56.2499 35.5807C56.2499 25.3189 46.7624 21.4894 38.9999 29.4167C31.2374 21.4894 21.7499 25.3189 21.7499 35.5807Z" fill="url(#paint0_radial_62_28)"/>
<defs>
<radialGradient id="paint0_radial_62_28" cx="0" cy="0" r="1" gradientUnits="userSpaceOnUse" gradientTransform="translate(-40.428 97.2784) rotate(-43.2397) scale(140.643 242.342)">
<stop offset="0.24392" stop-color="#FF1B90"/>
<stop offset="0.436673" stop-color="#F80261"/>
<stop offset="0.688476" stop-color="#ED00C0"/>
<stop offset="0.776787" stop-color="#C500E9"/>
<stop offset="0.893155" stop-color="#7017FF"/>
</radialGradient>
</defs>
</svg>
