<?xml version="1.0" encoding="UTF-8"?><svg id="Layer_1" xmlns="http://www.w3.org/2000/svg" width="252.46" height="226.92" viewBox="0 0 252.46 226.92"><defs><style>.cls-1{stroke-width:0px;}</style></defs><path class="cls-1" d="M252.44,76.73c-.18,1.18-.4,2.35-.52,3.54-.58,5.96-2.06,11.69-4.03,17.33-5.31,15.18-13.97,28.37-24.07,40.73-10.34,12.65-22.13,23.85-34.19,34.79-19,17.21-38.69,33.62-58.35,50.07-1.16.97-2.31,1.97-3.46,2.96-1.19,1.02-2.11,1.02-3.28.03-8.6-7.23-17.23-14.43-25.8-21.69-17.57-14.89-35.09-29.85-51.61-45.92-11.18-10.87-21.39-22.58-30.03-35.59-6.22-9.37-11.05-19.42-14.27-30.2C.12,83.74-.65,74.51.55,65.14,3.33,43.47,13.15,25.65,30.02,11.78c5.5-4.52,11.91-7.36,18.78-9.2C57.66.2,66.67-.43,75.78.27c7.14.55,14.19,1.77,21.05,3.84,5.46,1.64,10.84,3.51,16.25,5.3,1.68.56,2.14,1.81,1.41,3.39-5.89,12.7-11.78,25.41-17.66,38.12-4.99,10.79-9.97,21.59-14.95,32.39-.15.33-.41.68-.37.99.04.3.34.66.62.82.24.14.62.03.94.03h66.48c.44,0,.88-.03,1.32.03,1.64.2,2.42,1.57,1.7,3.07-1.88,3.92-3.79,7.83-5.7,11.74-6.92,14.21-13.85,28.41-20.77,42.61-.62,1.27-1.24,2.55-1.86,3.82l.42.29c23.29-27.7,46.57-55.4,70.09-83.38-.78-.07-1.19-.14-1.6-.14-14.64-.11-29.27-.22-43.91-.31-8.56-.06-17.12-.09-25.67-.14-2.75,0-3.6-1.28-2.48-3.82,4.26-9.63,8.54-19.25,12.82-28.88,2.99-6.75,6.15-13.43,8.89-20.27.94-2.35,2.66-2.72,4.51-3.31,6.89-2.2,13.85-4.11,21-5.23,9.33-1.46,18.67-1.65,28.06-.22,14.42,2.21,26.19,8.95,35.64,20,6.32,7.39,11.41,15.48,14.92,24.55,2.78,7.19,4.47,14.64,5.12,22.33.07.87.27,1.73.41,2.59v6.24h-.02ZM147.37,89.38h-68.8c-2.54,0-3.46-1.44-2.41-3.73,1.4-3.05,2.81-6.09,4.21-9.13,9.57-20.76,19.14-41.52,28.71-62.29.76-1.66.76-1.71-1.05-2.27-4.76-1.47-9.5-3.01-14.3-4.34-7.57-2.1-15.32-3.21-23.18-3.39-6.98-.16-13.87.58-20.64,2.38-7.1,1.88-13.57,5.02-19.07,9.89C15.7,29.9,6.81,46.6,4.6,66.78c-.92,8.45-.15,16.76,2.27,24.9,2.52,8.45,6.12,16.45,10.63,24.02,7.04,11.8,15.71,22.36,25.12,32.32,9.1,9.63,18.81,18.64,28.82,27.3,17.75,15.35,35.7,30.48,53.54,45.73.9.77,1.47.7,2.33-.03,19-16.29,38.12-32.44,57.02-48.86,10.87-9.44,21.34-19.34,30.85-30.19,10.38-11.86,19.82-24.36,26.08-38.99,3.06-7.15,5.57-14.47,6.38-22.23,1.11-10.61-.22-20.98-3.69-31.05-3.11-9.05-7.82-17.21-13.98-24.53-4.77-5.67-10.08-10.71-16.66-14.26-8.64-4.66-18.03-6.3-27.69-6.66-6.33-.24-12.65.29-18.84,1.55-5.62,1.14-11.15,2.73-16.7,4.21-1.65.44-3.18.87-4.05,2.86-6.42,14.78-13,29.5-19.53,44.23-.59,1.33-.52,1.45.98,1.46,6.12.04,12.24.09,18.36.12,15.24.06,30.48.11,45.72.17,2.44,0,4.88.04,7.32.08,1.1.02,2.07.34,2.52,1.48.4,1.02-.18,1.76-.79,2.48-12.6,15-25.2,30-37.81,45-14.69,17.48-29.37,34.96-44.06,52.43-1.11,1.32-2.2,2.64-3.36,3.91-.74.82-1.73.87-2.62.31-.91-.57-1.21-1.46-.79-2.5.13-.33.27-.67.43-.99,2.52-5.17,5.05-10.33,7.57-15.49,7.94-16.28,15.88-32.57,23.82-48.86,1.13-2.32,2.26-4.64,3.57-7.32h0Z"/></svg>