<?xml version="1.0" encoding="UTF-8"?><svg id="Layer_1" xmlns="http://www.w3.org/2000/svg" width="512" height="512" viewBox="0 0 512 512"><defs><style>.cls-1{fill:#f75fec;stroke-width:0px;}</style></defs><path class="cls-1" d="M296.49,259.38c-7.66.36-13.19-3.28-17.94-8.6-2.66-2.97-5.15-6.15-8.13-8.76-4.49-3.94-9.95-3.91-14.51.04-2.87,2.49-5.33,5.47-7.81,8.37-10.47,12.27-25.56,12.33-36.25.12-2.51-2.87-4.92-5.91-7.8-8.39-4.8-4.14-10.2-4.11-14.93.05-2.85,2.51-5.23,5.57-7.76,8.43-10.72,12.18-25.79,12.04-36.26-.3-2.36-2.79-4.7-5.66-7.43-8.06-4.77-4.2-10.14-4.29-14.89-.17-2.99,2.6-5.52,5.74-8.14,8.75-10.07,11.57-25.06,11.75-35.26.36-1.78-1.98-3.11-4.53-5.2-6.03-3.25-2.33-6.82-4.4-10.55-5.81-3-1.13-5.37-2.46-5.05-5.76.32-3.31,2.89-5.27,6.05-4.32,4.66,1.39,9.38,3.1,13.49,5.62,3,1.85,5.11,5.17,7.52,7.93,7.84,9.01,14.48,9.01,22.43-.04,2.09-2.38,4.06-4.87,6.32-7.07,9.19-8.92,22.06-8.96,31.31-.05,2.99,2.88,5.56,6.2,8.44,9.2,5.99,6.25,12.65,6.18,18.64-.17,2.74-2.91,5.19-6.1,8.05-8.87,9.44-9.16,22.33-9.11,31.64.11,2.95,2.92,5.52,6.24,8.42,9.22,5.65,5.81,12.26,5.82,17.96.01,3.03-3.09,5.64-6.59,8.75-9.59,9.03-8.72,21.89-8.77,30.95-.12,3.12,2.98,5.79,6.44,8.79,9.55,5.79,6,12.5,5.98,18.31-.06,2.65-2.76,4.98-5.83,7.68-8.54,9.95-9.94,22.83-9.95,32.71-.02,2.7,2.71,5.07,5.74,7.71,8.51,5.82,6.09,12.4,6.17,18.3.14,2.79-2.85,5.21-6.08,8.04-8.88,9.72-9.61,22.78-9.58,32.42.07,2.82,2.82,5.28,6,8.06,8.87,5.65,5.82,12.29,5.88,17.96.13,3.27-3.31,5.82-7.6,9.59-10.09,4.25-2.8,9.41-4.52,14.4-5.73,1.4-.34,4.66,2.54,5.13,4.42.34,1.32-2.46,4.86-4.09,5.02-6.38.63-10.09,4.57-13.69,9.05-4.91,6.1-10.37,11.15-18.94,11.51-7.81.33-13.91-2.62-18.91-8.31-1.98-2.25-3.74-4.7-5.82-6.86-6.58-6.85-13.27-6.83-19.84.03-1.84,1.92-3.45,4.06-5.17,6.09-10.44,12.3-25.58,12.38-36.23.17-1.75-2.01-3.33-4.17-5.15-6.11-6.68-7.09-13.56-7.09-20.19.02-2.16,2.31-4,4.91-6.16,7.22-4.63,4.94-10.1,8.13-16.99,7.68l.02.02Z"/></svg>